<svg width="158" height="29" viewBox="0 0 158 29" fill="none" xmlns="http://www.w3.org/2000/svg">
<g id="Frame 1445">
<path id="Logo" fill-rule="evenodd" clip-rule="evenodd" d="M22.2083 5.66135C23.7455 5.66135 25.0137 4.39044 25.0137 2.81142C25.0137 1.2324 23.7455 0 22.2083 0C20.5942 0 19.326 1.2324 19.326 2.81142C19.326 4.39044 20.5942 5.66135 22.2083 5.66135ZM24.5525 28.4993V9.4741H19.864V28.4993H24.5525ZM15.3722 16.9841V12.5551H4.91909V4.8911H17.3705V0.346614H0V28.4993H4.91909V16.9841H15.3722ZM32.836 18.255V28.4993H28.1475V9.4741H32.4902L32.8745 11.9389C34.0658 10.0133 36.3716 8.89641 38.9465 8.89641C43.7118 8.89641 46.1714 11.8619 46.1714 16.7915V28.4993H41.4829V17.9084C41.4829 14.7118 39.9072 13.1713 37.4861 13.1713C34.6038 13.1713 32.836 15.174 32.836 18.255ZM55.1782 29C58.1373 29 60.7122 27.6521 61.5192 25.6879L61.8651 28.4993H65.9771V16.9456C65.9771 11.6693 62.8259 8.89641 57.7146 8.89641C52.5649 8.89641 49.1831 11.5923 49.1831 15.7131H53.1798C53.1798 13.7105 54.717 12.5551 57.484 12.5551C59.8667 12.5551 61.4039 13.595 61.4039 16.1753V16.5989L55.7162 17.0226C51.2199 17.3692 48.6835 19.5644 48.6835 23.0691C48.6835 26.6507 51.143 29 55.1782 29ZM56.7154 25.4568C54.6017 25.4568 53.4488 24.6096 53.4488 22.8765C53.4488 21.336 54.5633 20.3732 57.484 20.1036L61.4424 19.7955V20.7968C61.4424 23.7238 59.5977 25.4568 56.7154 25.4568ZM74.0226 18.255V28.4993H69.3341V9.4741H73.6767L74.061 11.9389C75.2524 10.0133 77.5582 8.89641 80.133 8.89641C84.8984 8.89641 87.3579 11.8619 87.3579 16.7915V28.4993H82.6694V17.9084C82.6694 14.7118 81.0938 13.1713 78.6727 13.1713C75.7904 13.1713 74.0226 15.174 74.0226 18.255ZM89.03 22.7224C89.03 26.4582 92.0275 29 96.7545 29C101.443 29 104.71 26.6122 104.71 22.761C104.71 19.834 103.095 18.3705 99.9058 17.6388L96.4855 16.83C94.8714 16.4449 94.0259 15.7517 94.0259 14.6733C94.0259 13.2483 95.102 12.4011 96.9466 12.4011C98.7528 12.4011 99.8289 13.4409 99.8673 15.0584H104.325C104.287 11.3612 101.405 8.89641 97.1388 8.89641C92.7577 8.89641 89.6064 11.1301 89.6064 14.8659C89.6064 17.9084 91.2589 19.5259 94.6792 20.2961L98.0995 21.1049C99.7905 21.49 100.29 22.1833 100.29 23.1461C100.29 24.5325 99.0987 25.4183 96.9082 25.4183C94.7561 25.4183 93.5263 24.3785 93.4879 22.7224H89.03ZM124.747 22.3373C123.94 26.4967 120.481 29 115.523 29C109.874 29 105.916 24.8792 105.916 18.9867C105.916 13.0173 109.797 8.89641 115.37 8.89641C121.057 8.89641 124.67 12.7092 124.67 18.6401V20.0651L110.374 20.1036C110.72 23.4542 112.488 25.1487 115.6 25.1487C118.175 25.1487 119.866 24.1474 120.404 22.3373H124.747ZM120.02 17.0996C120.02 14.4807 118.214 12.7477 115.408 12.7477C112.641 12.7477 110.95 14.2497 110.489 17.0996H120.02ZM158 2.1773V2.90203V21.7449H155.105V5.06455L131.224 28.8845L129.178 26.8346L152.95 2.90203H136.29V0.00312768H155.829L157.998 0L157.998 0.00312768H158V1.82089V2.1773Z" fill="black"/>
</g>
</svg>
