<svg width="160" height="40" viewBox="0 0 160 40" fill="none" xmlns="http://www.w3.org/2000/svg">
<g id="Logo">
<path id="Logo_2" fill-rule="evenodd" clip-rule="evenodd" d="M22.4894 11.6614C24.046 11.6614 25.3303 10.3904 25.3303 8.81142C25.3303 7.2324 24.046 6 22.4894 6C20.8549 6 19.5706 7.2324 19.5706 8.81142C19.5706 10.3904 20.8549 11.6614 22.4894 11.6614ZM24.8633 34.4993V15.4741H20.1154V34.4993H24.8633ZM15.5667 22.9841V18.5551H4.98136V10.8911H17.5904V6.34661H0V34.4993H4.98136V22.9841H15.5667ZM33.2517 24.255V34.4993H28.5038V15.4741H32.9014L33.2906 17.9389C34.497 16.0133 36.832 14.8964 39.4395 14.8964C44.2652 14.8964 46.7558 17.8619 46.7558 22.7915V34.4993H42.008V23.9084C42.008 20.7118 40.4124 19.1713 37.9606 19.1713C35.0419 19.1713 33.2517 21.174 33.2517 24.255ZM55.8767 35C58.8733 35 61.4807 33.6521 62.2979 31.6879L62.6482 34.4993H66.8123V22.9456C66.8123 17.6693 63.6211 14.8964 58.4452 14.8964C53.2303 14.8964 49.8056 17.5923 49.8056 21.7131H53.853C53.853 19.7105 55.4097 18.5551 58.2117 18.5551C60.6245 18.5551 62.1812 19.595 62.1812 22.1753V22.5989L56.4215 23.0226C51.8682 23.3692 49.2997 25.5644 49.2997 29.0691C49.2997 32.6507 51.7904 35 55.8767 35ZM57.4333 31.4568C55.2929 31.4568 54.1254 30.6096 54.1254 28.8765C54.1254 27.336 55.254 26.3732 58.2117 26.1036L62.2201 25.7955V26.7968C62.2201 29.7238 60.3521 31.4568 57.4333 31.4568ZM74.9596 24.255V34.4993H70.2117V15.4741H74.6093L74.9985 17.9389C76.2049 16.0133 78.5399 14.8964 81.1474 14.8964C85.9731 14.8964 88.4637 17.8619 88.4637 22.7915V34.4993H83.7159V23.9084C83.7159 20.7118 82.1203 19.1713 79.6685 19.1713C76.7498 19.1713 74.9596 21.174 74.9596 24.255ZM90.1569 28.7224C90.1569 32.4582 93.1924 35 97.9792 35C102.727 35 106.035 32.6122 106.035 28.761C106.035 25.834 104.4 24.3705 101.17 23.6388L97.7068 22.83C96.0723 22.4449 95.2161 21.7517 95.2161 20.6733C95.2161 19.2483 96.3058 18.4011 98.1738 18.4011C100.003 18.4011 101.093 19.4409 101.131 21.0584H105.646C105.607 17.3612 102.688 14.8964 98.3684 14.8964C93.9319 14.8964 90.7407 17.1301 90.7407 20.8659C90.7407 23.9084 92.4141 25.5259 95.8777 26.2961L99.3413 27.1049C101.054 27.49 101.56 28.1833 101.56 29.1461C101.56 30.5325 100.353 31.4183 98.1349 31.4183C95.9555 31.4183 94.7102 30.3785 94.6713 28.7224H90.1569ZM126.326 28.3373C125.509 32.4967 122.006 35 116.986 35C111.265 35 107.257 30.8792 107.257 24.9867C107.257 19.0173 111.187 14.8964 116.83 14.8964C122.59 14.8964 126.248 18.7092 126.248 24.6401V26.0651L111.771 26.1036C112.121 29.4542 113.911 31.1487 117.064 31.1487C119.671 31.1487 121.383 30.1474 121.928 28.3373H126.326ZM121.539 23.0996C121.539 20.4807 119.71 18.7477 116.869 18.7477C114.067 18.7477 112.355 20.2497 111.888 23.0996H121.539ZM160 8.1773V8.90203V27.7449H157.069V11.0645L132.885 34.8845L130.813 32.8346L154.886 8.90203H138.015V6.00313H157.802L159.998 6L159.998 6.00313H160V7.82089V8.1773Z" fill="white"/>
</g>
</svg>
