<svg width="221" height="221" viewBox="0 0 221 221" fill="none" xmlns="http://www.w3.org/2000/svg">
<path d="M117.041 1.2581C112.032 -0.419367 108.968 -0.419367 103.959 1.2581C91.7401 5.3503 92.2701 31.2474 96.0458 56.7982C86.4862 32.8042 73.9455 10.1399 61.3234 12.7338C56.1494 13.7971 53.4986 15.3356 50.0086 19.3005C41.6155 28.8359 54.575 50.4801 70.3602 70.4482C50.3575 54.7069 28.6848 41.7949 19.1679 50.209C15.2106 53.7077 13.678 56.3619 12.6261 61.5382C10.0774 74.08 32.444 86.4868 56.2766 95.9692C30.896 92.2634 5.32245 91.8232 1.2581 103.959C-0.419367 108.968 -0.419367 112.032 1.2581 117.041C5.32245 129.177 30.896 128.737 56.2765 125.031C32.444 134.513 10.0773 146.92 12.626 159.462C13.6779 164.638 15.2105 167.292 19.1678 170.791C28.6846 179.205 50.357 166.293 70.3595 150.552C54.5744 170.52 41.6152 192.164 50.0083 201.699C53.4983 205.664 56.1491 207.203 61.3231 208.266C73.9454 210.86 86.4863 188.195 96.046 164.201C92.2701 189.752 91.7399 215.65 103.959 219.742C108.968 221.419 112.032 221.419 117.041 219.742C129.26 215.65 128.73 189.751 124.954 164.199C134.514 188.194 147.055 210.86 159.677 208.266C164.851 207.203 167.502 205.664 170.992 201.699C179.385 192.164 166.426 170.52 150.641 150.552C170.643 166.293 192.316 179.205 201.833 170.791C205.79 167.292 207.322 164.638 208.374 159.462C210.923 146.92 188.557 134.513 164.724 125.031C190.104 128.737 215.678 129.177 219.742 117.041C221.419 112.032 221.419 108.968 219.742 103.959C215.678 91.8233 190.104 92.2634 164.724 95.9691C188.556 86.4867 210.923 74.08 208.374 61.5382C207.322 56.3619 205.79 53.7077 201.832 50.209C192.316 41.7949 170.643 54.7068 150.64 70.4482C166.425 50.4801 179.385 28.8359 170.992 19.3005C167.502 15.3356 164.851 13.7971 159.677 12.7338C147.055 10.1399 134.514 32.8051 124.954 56.7997C128.73 31.2484 129.26 5.35038 117.041 1.2581Z" fill="#BAE8E8"/>
</svg>
