<svg width="143" height="49" viewBox="0 0 143 49" fill="none" xmlns="http://www.w3.org/2000/svg">
<g clip-path="url(#clip0_0_126)">
<path fill-rule="evenodd" clip-rule="evenodd" d="M25.4819 32.1462C25.4819 32.2402 25.4355 32.3185 25.3426 32.3812C25.2806 32.4125 25.1722 32.5065 25.0174 32.6632C24.8625 32.7885 24.7232 32.8825 24.5993 32.9452C24.5373 33.0078 24.4134 33.0862 24.2276 33.1802C23.9179 33.4308 23.5772 33.6815 23.2056 33.9321C23.0198 34.0261 22.834 34.1358 22.6481 34.2611C20.728 35.389 19.133 35.953 17.8632 35.953C16.6553 35.953 15.5869 35.6397 14.6577 35.0131C13.7286 34.3551 13.0782 33.5091 12.7066 32.4752V32.5222C11.9943 33.1175 11.4368 33.5718 11.0342 33.8851C10.6316 34.1984 10.1051 34.5431 9.45469 34.9191C8.83528 35.295 8.20039 35.5614 7.55001 35.718C6.89963 35.8747 6.18731 35.953 5.41304 35.953C4.05034 35.953 2.85798 35.4987 1.83595 34.5901C0.844893 33.6501 0.349365 32.5222 0.349365 31.2063C0.349365 30.517 0.566159 29.859 0.999746 29.2324C1.43333 28.6057 1.94435 28.0731 2.53279 27.6345C3.1522 27.1645 3.94194 26.6788 4.90203 26.1775C5.89309 25.6762 6.74477 25.2846 7.4571 25.0026C8.20039 24.6893 9.09853 24.329 10.1515 23.9217C11.2045 23.5144 11.9478 23.2167 12.3814 23.0287V17.906C12.3814 17.0914 12.2575 16.3708 12.0098 15.7441C11.762 15.1175 11.3903 14.6319 10.8948 14.2872C10.4303 13.9112 9.88828 13.7232 9.26887 13.7232C8.83528 13.7232 8.38621 13.7702 7.92165 13.8642C7.48807 13.9582 7.05448 14.1462 6.62089 14.4282C6.18731 14.7102 5.86211 15.0548 5.64532 15.4621C5.4595 15.8695 5.42853 16.4334 5.55241 17.154C5.67629 17.8433 6.03245 18.6423 6.62089 19.5509L5.59887 20.3969C4.94848 20.9295 4.25165 21.1488 3.50836 21.0548C2.79604 20.9608 2.22308 20.6632 1.78949 20.1619C1.35591 19.6292 1.07717 19.0183 0.95329 18.329C0.860379 17.6397 1.13911 16.9661 1.78949 16.3081C1.78949 16.3081 1.80498 16.2924 1.83595 16.2611C3.69418 14.4125 6.12536 13.4256 9.1295 13.3003C9.16047 13.3003 9.19144 13.3003 9.22241 13.3003C9.28436 13.2689 9.31533 13.2533 9.31533 13.2533C9.40824 13.2533 9.54761 13.2533 9.73343 13.2533H9.82634C12.1801 13.2846 14.2087 13.9739 15.912 15.3211C17.6464 16.6684 18.5136 18.329 18.5136 20.3029L18.6994 26.4125V29.3734C18.6994 30.6266 18.9781 31.5979 19.5356 32.2872C20.0931 32.9765 20.8828 33.3211 21.9048 33.3211C22.741 33.3211 23.5153 33.0705 24.2276 32.5692C24.3825 32.5065 24.5528 32.3812 24.7386 32.1932L25.0638 31.9582C25.1258 31.9269 25.1722 31.9112 25.2032 31.9112C25.389 31.9112 25.4819 31.9896 25.4819 32.1462ZM11.1736 33.1332C11.6071 32.8512 12.0562 32.4595 12.5208 31.9582C12.4279 31.5822 12.3814 31.2219 12.3814 30.8773V23.4987C10.9568 24.0313 9.85731 24.5953 9.08305 25.1906C8.30878 25.7546 7.75132 26.4125 7.41064 27.1645C7.10094 27.9164 6.94608 28.8564 6.94608 29.9843C6.94608 30.9243 7.17836 31.7546 7.64292 32.4752C8.13845 33.1645 8.80431 33.5091 9.64052 33.5091C10.2599 33.5091 10.7709 33.3838 11.1736 33.1332ZM33.4531 13.8642V29.7023C33.515 30.8616 33.8092 31.7546 34.3357 32.3812C34.8622 33.0078 35.5746 33.3211 36.4727 33.3211C37.1541 33.3211 37.727 33.2115 38.1916 32.9922C38.6561 32.7728 39.1671 32.4282 39.7246 31.9582C39.7556 31.8956 39.802 31.8642 39.864 31.8642C40.0188 31.8642 40.0963 31.9582 40.0963 32.1462C40.0963 32.2402 40.0653 32.3029 40.0033 32.3342V32.3812C36.8753 34.7937 34.3512 36 32.4311 36C30.9135 36 29.6282 35.4987 28.5752 34.4961C27.5532 33.4935 27.0112 32.3029 26.9493 30.9243V13.8642H21.7927V13.2533H26.9493V10.8564C26.8254 8.75718 25.7724 7.70757 23.7903 7.70757V7.33159C24.3787 7.26893 24.9981 7.15927 25.6485 7.00261C26.3299 6.84595 26.9648 6.68929 27.5532 6.53264C28.1416 6.34465 28.7146 6.15666 29.2721 5.96867C29.8605 5.74935 30.3715 5.54569 30.8051 5.3577C31.2697 5.16971 31.6723 5.01306 32.013 4.88773C32.3846 4.73107 32.6633 4.60574 32.8492 4.51175L33.1279 4.37076H33.4531V13.2533H40.5144V13.8642H33.4531ZM58.6873 14.0992C59.1518 14.6632 59.3996 15.2898 59.4306 15.9791C59.4615 16.6371 59.2447 17.2637 58.7802 17.859C58.3466 18.4543 57.7272 18.7833 56.9219 18.846L55.5747 18.9869C55.4509 18.0157 55.1257 17.2637 54.5992 16.7311C54.1036 16.1671 53.4378 15.8851 52.6016 15.8851C52.0751 15.8851 51.5641 15.9948 51.0685 16.2141C50.573 16.4334 50.2014 16.6527 49.9536 16.8721C49.7058 17.0601 49.2877 17.4047 48.6993 17.906C48.6993 17.906 48.6993 17.8903 48.6993 17.859V29.6084C48.7612 30.3603 48.9006 31.0183 49.1174 31.5822C49.3651 32.1149 49.7058 32.5379 50.1394 32.8512C50.604 33.1332 51.1305 33.2742 51.7189 33.2742C52.4003 33.2742 52.9732 33.1645 53.4378 32.9452C53.9023 32.6945 54.4133 32.3342 54.9708 31.8642C55.0018 31.8329 55.0482 31.8172 55.1102 31.8172C55.296 31.8172 55.3889 31.8956 55.3889 32.0522C55.3889 32.1462 55.3424 32.2245 55.2495 32.2872C52.1215 34.6997 49.6129 35.906 47.7237 35.906C46.7017 35.906 45.7726 35.671 44.9364 35.201C44.1002 34.7311 43.4343 34.1044 42.9388 33.3211C42.4742 32.5379 42.2264 31.7076 42.1955 30.8303V19.7389C42.0716 17.6397 41.0186 16.5901 39.0365 16.5901V16.2141C40.3372 16.0574 41.7619 15.7441 43.3104 15.2741C44.8589 14.7728 46.0978 14.3185 47.0269 13.9112L48.4205 13.2533H48.6993V17.201C52.0131 14.5692 54.6611 13.2533 56.6432 13.2533C56.6742 13.2533 56.7052 13.2533 56.7361 13.2533C57.5723 13.2533 58.2227 13.5352 58.6873 14.0992ZM62.3061 6.86162C61.5318 6.07833 61.1447 5.13838 61.1447 4.04178C61.1447 2.91384 61.5318 1.95823 62.3061 1.17494C63.0804 0.391645 64.0095 0 65.0934 0C66.2084 0 67.153 0.391645 67.9272 1.17494C68.7015 1.95823 69.0886 2.89817 69.0886 3.99478C69.0886 4.74674 68.9028 5.43603 68.5312 6.06266C68.1905 6.65796 67.7104 7.1436 67.091 7.51958C66.5026 7.86423 65.8367 8.03655 65.0934 8.03655C64.0095 8.03655 63.0804 7.64491 62.3061 6.86162ZM74.8492 32.2402C71.7211 34.6841 69.2125 35.906 67.3233 35.906C66.3013 35.906 65.3722 35.671 64.536 35.201C63.6998 34.7311 63.0339 34.1044 62.5384 33.3211C62.0738 32.5379 61.8261 31.7076 61.7951 30.8303V19.7389C61.6712 17.6397 60.6182 16.5901 58.6361 16.5901V16.2141C59.9369 16.0574 61.3615 15.7441 62.91 15.2741C64.4585 14.7728 65.6974 14.3029 66.6265 13.8642L68.0201 13.2533H68.2989V29.6084C68.3608 30.7676 68.6551 31.6606 69.1815 32.2872C69.708 32.9138 70.4204 33.2271 71.3185 33.2271C71.9999 33.2271 72.5728 33.1175 73.0374 32.8982C73.5019 32.6788 74.0129 32.3342 74.5704 31.8642C74.6014 31.8016 74.6478 31.7702 74.7098 31.7702C74.8956 31.7702 74.9885 31.8642 74.9885 32.0522C74.9885 32.1462 74.9421 32.2089 74.8492 32.2402ZM99.7959 32.5692V32.8982C98.5261 33.0548 97.1015 33.3838 95.522 33.8851C93.9734 34.3864 92.7346 34.8407 91.8055 35.248L90.4583 35.906H90.1331V32.0052C86.8502 34.5744 84.2177 35.859 82.2356 35.859C80.7181 35.859 79.4328 35.3734 78.3798 34.4021C77.3578 33.3995 76.8158 32.1932 76.7538 30.7833V22.9817V20.0209C76.7538 18.7363 76.4906 17.7337 75.9641 17.0131C75.4686 16.2611 74.7253 15.8851 73.7342 15.8851C72.898 15.8851 72.1083 16.1201 71.365 16.5901C71.2411 16.6841 71.0707 16.8094 70.854 16.9661L70.5752 17.248C70.5133 17.2794 70.4513 17.295 70.3894 17.295C70.2345 17.295 70.1571 17.2167 70.1571 17.0601C70.1571 16.9347 70.1881 16.8564 70.25 16.8251C70.3429 16.7624 70.4668 16.6684 70.6217 16.5431C70.7765 16.4178 70.9004 16.3238 70.9933 16.2611C71.0862 16.1984 71.2101 16.1044 71.365 15.9791C71.7056 15.7598 72.0618 15.5248 72.4334 15.2741C72.5883 15.1802 72.7741 15.0705 72.9909 14.9452C74.8801 13.8172 76.4751 13.2533 77.7759 13.2533C79.2934 13.2533 80.5632 13.7546 81.5852 14.7572C82.6382 15.7285 83.1957 16.9191 83.2576 18.329V26.1305V29.0914C83.2576 29.9373 83.366 30.6736 83.5828 31.3003C83.7996 31.9269 84.1403 32.4125 84.6049 32.7572C85.0694 33.0705 85.6269 33.2271 86.2773 33.2271C86.8038 33.2271 87.2993 33.1332 87.7638 32.9452C88.2594 32.7258 88.6465 32.5222 88.9252 32.3342C89.204 32.1149 89.6066 31.7702 90.1331 31.3003V19.5509C90.0712 18.3916 89.7769 17.4987 89.2504 16.8721C88.7239 16.2141 88.0116 15.8851 87.1135 15.8851C86.4321 15.8851 85.8592 16.0104 85.3946 16.2611C84.961 16.4804 84.45 16.8251 83.8616 17.295C83.8306 17.3264 83.7841 17.342 83.7222 17.342C83.5673 17.342 83.4899 17.2637 83.4899 17.107C83.4899 17.0131 83.5209 16.9347 83.5828 16.8721C86.7109 14.4595 89.2349 13.2533 91.1551 13.2533C92.6727 13.2533 93.9425 13.7546 94.9645 14.7572C96.0175 15.7598 96.575 16.9504 96.6369 18.329V29.4204C96.7608 31.5196 97.8138 32.5692 99.7959 32.5692ZM142.349 32.0992C142.349 32.1932 142.318 32.2715 142.256 32.3342C142.195 32.3655 142.117 32.4282 142.024 32.5222C141.931 32.5849 141.838 32.6475 141.745 32.7102C141.653 32.7728 141.56 32.8355 141.467 32.8982C141.405 32.9608 141.296 33.0392 141.142 33.1332C140.801 33.3838 140.445 33.6345 140.073 33.8851C139.918 33.9791 139.732 34.0888 139.516 34.2141C137.626 35.342 136.047 35.906 134.777 35.906C133.229 35.906 131.928 35.4047 130.875 34.4021C129.853 33.3995 129.311 32.2089 129.249 30.8303V23.0287V20.0209C129.249 18.7363 128.986 17.7337 128.459 17.0131C127.964 16.2924 127.22 15.9321 126.229 15.9321C125.703 15.9321 125.192 16.0418 124.696 16.2611C124.201 16.4491 123.814 16.6527 123.535 16.8721C123.287 17.0601 122.884 17.4047 122.327 17.906C122.358 18.0627 122.373 18.2037 122.373 18.329V26.1775V29.1384C122.373 30.423 122.637 31.4413 123.163 32.1932C123.69 32.9138 124.433 33.2742 125.393 33.2742C126.26 33.2742 127.05 33.0235 127.762 32.5222C127.917 32.4595 128.087 32.3342 128.273 32.1462L128.598 31.9112C128.629 31.8799 128.676 31.8642 128.738 31.8642C128.893 31.8642 128.97 31.9426 128.97 32.0992C128.97 32.1932 128.939 32.2715 128.877 32.3342C128.815 32.3655 128.738 32.4282 128.645 32.5222C128.552 32.5849 128.459 32.6475 128.366 32.7102C128.273 32.7728 128.18 32.8355 128.087 32.8982C128.026 32.9608 127.917 33.0392 127.762 33.1332C127.422 33.3838 127.065 33.6345 126.694 33.8851C126.539 33.9791 126.369 34.0888 126.183 34.2141C124.263 35.342 122.668 35.906 121.398 35.906C119.849 35.906 118.549 35.4047 117.496 34.4021C116.474 33.3995 115.947 32.2089 115.916 30.8303V23.0287V20.0209C115.916 18.7363 115.653 17.7337 115.126 17.0131C114.6 16.2924 113.841 15.9321 112.85 15.9321C112.323 15.9321 111.812 16.0418 111.317 16.2611C110.821 16.4491 110.45 16.6527 110.202 16.8721C109.954 17.0601 109.536 17.4047 108.948 17.906C108.948 17.906 108.948 17.8903 108.948 17.859V29.6084C109.01 30.3916 109.149 31.0496 109.366 31.5822C109.614 32.1149 109.954 32.5379 110.388 32.8512C110.852 33.1332 111.379 33.2742 111.967 33.2742C112.649 33.2742 113.222 33.1645 113.686 32.9452C114.151 32.6945 114.662 32.3342 115.219 31.8642C115.25 31.8329 115.297 31.8172 115.359 31.8172C115.544 31.8172 115.637 31.8956 115.637 32.0522C115.637 32.1462 115.591 32.2245 115.498 32.2872C112.37 34.6997 109.861 35.906 107.972 35.906C106.95 35.906 106.021 35.671 105.185 35.201C104.349 34.7311 103.683 34.1201 103.187 33.3681C102.723 32.5849 102.475 31.7389 102.444 30.8303V19.7389C102.32 17.671 101.267 16.6371 99.2849 16.6371V16.2611C100.586 16.1044 102.01 15.7755 103.559 15.2741C105.107 14.7728 106.346 14.3185 107.275 13.9112L108.669 13.3003H108.948V17.201C112.262 14.5692 114.91 13.2533 116.892 13.2533C118.223 13.2533 119.369 13.6449 120.329 14.4282C121.289 15.1802 121.924 16.1358 122.234 17.295C125.579 14.6005 128.258 13.2533 130.271 13.2533C131.788 13.2533 133.058 13.7546 134.08 14.7572C135.133 15.7598 135.691 16.9504 135.753 18.329V26.1775V29.1384C135.753 30.423 136.016 31.4413 136.542 32.1932C137.069 32.9138 137.812 33.2742 138.772 33.2742C139.608 33.2742 140.398 33.0235 141.142 32.5222C141.265 32.4595 141.436 32.3342 141.653 32.1462L141.978 31.9112C142.009 31.8799 142.055 31.8642 142.117 31.8642C142.272 31.8642 142.349 31.9426 142.349 32.0992Z" fill="#FB4587"/>
<path fill-rule="evenodd" clip-rule="evenodd" d="M2.66318 42.9183H0.349365V42.12H5.91593V42.9183H3.59253V48.8846H2.66318V42.9183ZM15.069 42.12H20.1469V42.9183H15.9983V44.9901H19.8834V45.7838H15.9983V48.0864H20.3098V48.8846H15.069V42.12ZM35.7096 46.739C35.5148 47.4742 35.1635 48.0356 34.6557 48.4232C34.1511 48.8077 33.5332 49 32.8018 49C32.0449 49 31.4285 48.8523 30.9527 48.557C30.48 48.2586 30.1191 47.8279 29.87 47.265C29.6241 46.702 29.5012 46.0976 29.5012 45.4515C29.5012 44.7471 29.6401 44.1334 29.9179 43.6104C30.199 43.0844 30.5966 42.686 31.1108 42.4153C31.6281 42.1415 32.1966 42.0046 32.8162 42.0046C33.5188 42.0046 34.1096 42.1769 34.5887 42.5214C35.0677 42.866 35.4015 43.3505 35.5899 43.975L34.6749 44.1826C34.512 43.6904 34.2757 43.332 33.9659 43.1074C33.6561 42.8829 33.2665 42.7706 32.797 42.7706C32.2573 42.7706 31.8054 42.8952 31.4413 43.1444C31.0804 43.3935 30.8265 43.7289 30.6796 44.1503C30.5327 44.5687 30.4593 45.0009 30.4593 45.4469C30.4593 46.0222 30.5455 46.5252 30.7179 46.9558C30.8936 47.3834 31.1651 47.7034 31.5323 47.9156C31.8996 48.1279 32.2972 48.234 32.7252 48.234C33.2457 48.234 33.6865 48.0894 34.0473 47.8003C34.4082 47.5111 34.6525 47.082 34.7803 46.5129L35.7096 46.739ZM45.0639 42.12H45.9932V44.8978H49.6436V42.12H50.573V48.8846H49.6436V45.6961H45.9932V48.8846H45.0639V42.12ZM60.2913 42.12H61.2446L64.9333 47.4311V42.12H65.8243V48.8846H64.871L61.1823 43.5689V48.8846H60.2913V42.12ZM76.2229 42.9552C76.8489 42.3184 77.6569 42 78.6469 42C79.2952 42 79.8796 42.1492 80.4002 42.4476C80.9208 42.746 81.3168 43.1628 81.5883 43.6981C81.8629 44.2303 82.0002 44.8348 82.0002 45.5115C82.0002 46.1975 81.8565 46.8113 81.5691 47.3527C81.2817 47.8941 80.8745 48.3048 80.3475 48.5847C79.8206 48.8616 79.2521 49 78.6421 49C77.981 49 77.3902 48.8462 76.8696 48.5386C76.3491 48.2309 75.9546 47.811 75.6864 47.2788C75.4181 46.7466 75.284 46.1837 75.284 45.59C75.284 44.4671 75.5969 43.5889 76.2229 42.9552ZM76.9223 47.5326C77.379 48.0002 77.9507 48.234 78.6373 48.234C79.3367 48.234 79.9116 47.9971 80.3619 47.5234C80.8154 47.0497 81.0421 46.3775 81.0421 45.5069C81.0421 44.9563 80.9447 44.4764 80.7499 44.0672C80.5583 43.655 80.2757 43.3366 79.902 43.1121C79.5315 42.8844 79.1148 42.7706 78.6517 42.7706C77.9938 42.7706 77.4269 42.989 76.9511 43.4258C76.4784 43.8596 76.2421 44.5856 76.2421 45.6038C76.2421 46.419 76.4688 47.062 76.9223 47.5326ZM91.3401 42.12H92.2695V48.0864H95.7282V48.8846H91.3401V42.12ZM105.672 42.9552C106.298 42.3184 107.106 42 108.096 42C108.744 42 109.328 42.1492 109.849 42.4476C110.37 42.746 110.766 43.1628 111.037 43.6981C111.312 44.2303 111.449 44.8348 111.449 45.5115C111.449 46.1975 111.305 46.8113 111.018 47.3527C110.73 47.8941 110.323 48.3048 109.796 48.5847C109.269 48.8616 108.701 49 108.091 49C107.43 49 106.839 48.8462 106.318 48.5386C105.798 48.2309 105.403 47.811 105.135 47.2788C104.867 46.7466 104.733 46.1837 104.733 45.59C104.733 44.4671 105.046 43.5889 105.672 42.9552ZM106.371 47.5326C106.828 48.0002 107.399 48.234 108.086 48.234C108.786 48.234 109.36 47.9971 109.811 47.5234C110.264 47.0497 110.491 46.3775 110.491 45.5069C110.491 44.9563 110.394 44.4764 110.199 44.0672C110.007 43.655 109.724 43.3366 109.351 43.1121C108.98 42.8844 108.564 42.7706 108.1 42.7706C107.443 42.7706 106.876 42.989 106.4 43.4258C105.927 43.8596 105.691 44.5856 105.691 45.6038C105.691 46.419 105.918 47.062 106.371 47.5326ZM124.114 45.4377L127.088 45.4331V47.9433C126.632 48.294 126.161 48.5586 125.675 48.737C125.19 48.9123 124.692 49 124.181 49C123.491 49 122.863 48.8585 122.298 48.5755C121.736 48.2894 121.311 47.8772 121.024 47.3388C120.736 46.8005 120.593 46.1991 120.593 45.5346C120.593 44.8763 120.735 44.2626 121.019 43.6935C121.306 43.1213 121.718 42.6968 122.255 42.4199C122.791 42.143 123.409 42.0046 124.109 42.0046C124.617 42.0046 125.075 42.0846 125.484 42.2446C125.896 42.4015 126.218 42.6214 126.451 42.9044C126.684 43.1874 126.862 43.5566 126.983 44.0119L126.145 44.2334C126.039 43.8888 125.908 43.6181 125.752 43.4212C125.595 43.2243 125.372 43.0675 125.081 42.9506C124.791 42.8306 124.468 42.7706 124.114 42.7706C123.689 42.7706 123.321 42.8337 123.012 42.9598C122.702 43.0828 122.451 43.2459 122.26 43.4489C122.071 43.6519 121.924 43.875 121.819 44.118C121.64 44.5364 121.551 44.9901 121.551 45.4792C121.551 46.0822 121.658 46.5867 121.872 46.9927C122.089 47.3988 122.403 47.7003 122.815 47.8972C123.227 48.094 123.665 48.1925 124.128 48.1925C124.53 48.1925 124.923 48.1187 125.306 47.971C125.69 47.8203 125.98 47.6603 126.178 47.4911V46.2314H124.114V45.4377ZM138.618 46.0191L135.911 42.12H137.041L138.426 44.1595C138.681 44.541 138.919 44.9224 139.14 45.3039C139.351 44.9501 139.606 44.5517 139.906 44.1088L141.267 42.12H142.349L139.547 46.0191V48.8846H138.618V46.0191Z" fill="#8E8E8E"/>
</g>
<defs>
<clipPath id="clip0_0_126">
<rect width="142" height="49" fill="white" transform="translate(0.349365)"/>
</clipPath>
</defs>
</svg>
