<svg width="173" height="40" viewBox="0 0 173 40" fill="none" xmlns="http://www.w3.org/2000/svg">
<g clip-path="url(#clip0_0_149)">
<path fill-rule="evenodd" clip-rule="evenodd" d="M28.2769 37.7465C25.4869 39.2488 22.4822 40 19.2628 40C16.4728 40 13.8973 39.4634 11.5365 38.3903C9.22931 37.3172 7.24407 35.8685 5.58075 34.0443C3.91744 32.22 2.62971 30.1006 1.71757 27.6861C0.805435 25.218 0.349365 22.6157 0.349365 19.8793C0.349365 17.0892 0.805435 14.4869 1.71757 12.0724C2.62971 9.65795 3.89061 7.56539 5.50027 5.79477C7.16358 4.02415 9.14883 2.65594 11.456 1.69014C13.8168 0.670691 16.4191 0.160967 19.2628 0.160967C21.4627 0.160967 23.6089 0.482898 25.7015 1.12676C27.794 1.77062 29.7793 2.65594 31.6572 3.7827V9.4165C30.0476 7.05566 28.0355 5.07042 25.621 3.46076C23.2065 1.79745 20.5237 0.965796 17.5727 0.965796C14.407 0.965796 11.8584 1.90476 9.92683 3.7827C7.99524 5.60698 6.62703 7.88732 5.8222 10.6237C5.01737 13.3602 4.77592 16.3649 5.09786 19.6378C5.41979 22.8571 6.25144 25.835 7.59282 28.5714C8.98786 31.3078 10.8658 33.615 13.2266 35.493C15.5875 37.3172 18.4312 38.2294 21.7578 38.2294C24.3869 38.2294 26.7746 37.5319 28.9208 36.1368C31.1207 34.7418 33.0254 33.0785 34.6351 31.1469L35.3594 31.6298C33.4278 34.2052 31.067 36.2441 28.2769 37.7465ZM40.5631 37.827C40.9387 36.9685 41.1265 36.0295 41.1265 35.0101V4.66801C41.1265 3.64856 40.9387 2.73642 40.5631 1.93159C40.1876 1.07311 39.4632 0.482898 38.3901 0.160967H47.6456C46.5725 0.482898 45.8482 1.07311 45.4726 1.93159C45.097 2.73642 44.9092 3.64856 44.9092 4.66801V38.9537H55.0501C57.3036 38.9537 59.1815 38.3903 60.6839 37.2636C62.2399 36.0832 63.5544 34.554 64.6275 32.6761L63.0983 39.5976H38.3901C39.4632 39.2757 40.1876 38.6854 40.5631 37.827ZM70.1154 37.827C70.491 36.9685 70.6788 36.0295 70.6788 35.0101V4.66801C70.6788 3.64856 70.491 2.73642 70.1154 1.93159C69.7399 1.07311 69.0155 0.482898 67.9424 0.160967H77.1979C76.1248 0.482898 75.4005 1.07311 75.0249 1.93159C74.6493 2.73642 74.4615 3.64856 74.4615 4.66801V35.0101C74.4615 36.0295 74.6493 36.9685 75.0249 37.827C75.4005 38.6854 76.1248 39.2757 77.1979 39.5976H67.9424C69.0155 39.2757 69.7399 38.6854 70.1154 37.827ZM85.3802 1.85111C84.5753 1.04628 83.6364 0.482898 82.5633 0.160967H90.1287L106.708 34.0443L121.115 0.160967H127.312C126.239 0.482898 125.514 1.07311 125.139 1.93159C124.763 2.73642 124.575 3.64856 124.575 4.66801V35.0101C124.575 36.0832 124.763 37.049 125.139 37.9074C125.514 38.7123 126.239 39.2757 127.312 39.5976H118.056C119.129 39.2757 119.854 38.7123 120.229 37.9074C120.605 37.049 120.793 36.0832 120.793 35.0101V2.57545L107.111 34.8491L108.398 37.4245C107.057 37.5319 105.984 38.2562 105.179 39.5976L87.2313 2.8169V34.6076C87.2313 35.949 87.6068 37.0221 88.358 37.827C89.1092 38.5781 90.1018 39.1683 91.3359 39.5976H82.5633C83.7973 39.1683 84.7631 38.5781 85.4606 37.827C86.2118 37.0221 86.5874 35.949 86.5874 34.6076V4.90945C86.5874 3.67538 86.185 2.65594 85.3802 1.85111ZM133.844 12.1529C134.917 9.73843 136.339 7.64588 138.11 5.87525C139.934 4.05097 142.053 2.62911 144.468 1.60966C146.882 0.536553 149.458 0 152.194 0C154.931 0 157.506 0.536553 159.921 1.60966C162.335 2.62911 164.428 4.05097 166.198 5.87525C168.022 7.64588 169.444 9.73843 170.464 12.1529C171.537 14.5674 172.073 17.1429 172.073 19.8793C172.073 22.6157 171.537 25.1911 170.464 27.6056C169.444 30.0201 168.022 32.1395 166.198 33.9638C164.428 35.7344 162.335 37.1563 159.921 38.2294C157.506 39.2488 154.931 39.7585 152.194 39.7585C149.458 39.7585 146.882 39.2488 144.468 38.2294C142.053 37.1563 139.934 35.7344 138.11 33.9638C136.339 32.1395 134.917 30.0201 133.844 27.6056C132.825 25.1911 132.315 22.6157 132.315 19.8793C132.315 17.1429 132.825 14.5674 133.844 12.1529ZM137.868 25.9155C138.673 28.33 139.773 30.5298 141.168 32.5151C142.617 34.4467 144.361 36.0563 146.399 37.3441C148.438 38.5781 150.719 39.1952 153.24 39.1952C155.601 39.1952 157.667 38.6318 159.438 37.505C161.262 36.3783 162.791 34.9296 164.025 33.159C165.259 31.3883 166.198 29.4299 166.842 27.2837C167.486 25.0838 167.808 22.9376 167.808 20.8451C167.808 18.5379 167.432 16.2039 166.681 13.8431C165.93 11.4286 164.83 9.25553 163.381 7.32394C161.986 5.3387 160.269 3.72904 158.23 2.49497C156.191 1.2609 153.884 0.643863 151.309 0.643863C149.002 0.643863 146.936 1.20724 145.112 2.334C143.287 3.46076 141.758 4.90946 140.524 6.68008C139.29 8.4507 138.351 10.4091 137.707 12.5553C137.063 14.7015 136.741 16.8209 136.741 18.9135C136.741 21.167 137.117 23.501 137.868 25.9155Z" fill="#008DFF"/>
</g>
<defs>
<clipPath id="clip0_0_149">
<rect width="171.724" height="40" fill="white" transform="translate(0.349365)"/>
</clipPath>
</defs>
</svg>
