<svg width="153" height="48" viewBox="0 0 153 48" fill="none" xmlns="http://www.w3.org/2000/svg">
<g clip-path="url(#clip0_0_64)">
<path fill-rule="evenodd" clip-rule="evenodd" d="M24.0681 31L22.5776 25.9806C21.5578 27.6671 20.3942 28.9253 19.0868 29.7552C17.8055 30.5851 16.2889 31 14.5369 31C10.6146 31 7.35909 29.5678 4.77037 26.7034C2.2078 23.8122 0.926514 20.1179 0.926514 15.6205C0.926514 11.1498 2.29932 7.3886 5.04493 4.33679C7.6598 1.4456 10.7061 0 14.1839 0C15.6221 0 16.9557 0.281089 18.1846 0.843266C19.0737 1.24482 20.1589 1.95423 21.4402 2.9715L23.0483 0H24.3819L25.0879 11.886H23.872C22.8522 8.40587 21.584 5.82254 20.0674 4.13601C18.5507 2.42271 16.6942 1.56606 14.4977 1.56606C11.3337 1.56606 8.96723 3.11874 7.39831 6.22409C6.87534 7.26814 6.48311 8.56649 6.22162 10.1192C5.98628 11.6451 5.86862 13.4788 5.86862 15.6205C5.86862 24.9365 8.70575 29.5946 14.38 29.5946C16.4981 29.5946 18.1977 28.9253 19.479 27.5868C20.7864 26.2215 21.4402 24.468 21.4402 22.3264V19.5959C21.4402 18.6589 20.7341 18.1904 19.3221 18.1904H16.8511V16.785H29.0494V18.1904H27.4021C26.0162 18.1904 25.3232 18.6991 25.3232 19.7163V31H24.0681ZM30.0194 11.5246L36.6088 11.2034V18.7927C37.341 16.2496 38.2039 14.3489 39.1975 13.0907C40.1912 11.8325 41.4202 11.2034 42.8845 11.2034C43.8782 11.2034 44.6626 11.5246 45.2379 12.1671C45.8393 12.7828 46.14 13.6395 46.14 14.737C46.14 15.4866 45.9439 16.1023 45.5517 16.5842C45.1594 17.0661 44.6495 17.307 44.022 17.307C43.4467 17.307 42.976 17.1062 42.6099 16.7047C42.27 16.2763 42.1 15.7275 42.1 15.0583C42.1 14.6835 42.1916 14.2953 42.3746 13.8938C42.5576 13.4922 42.6492 13.2513 42.6492 13.171C42.6492 13.1174 42.5969 13.0639 42.4923 13.0104C42.4661 13.0104 42.4008 12.997 42.2962 12.9702C41.1718 12.9702 40.0212 14.0946 38.8445 16.3433C37.694 18.5652 37.1187 20.921 37.1187 23.4106V27.4262C37.1187 28.3631 37.8117 28.8316 39.1975 28.8316H41.5509V30.3575H30.137V28.8316H31.9413C33.2226 28.8316 33.8632 28.4033 33.8632 27.5466V15.5803C33.8632 13.8402 33.118 12.9702 31.6275 12.9702H30.0194V11.5246ZM52.7071 15.5803C52.9424 15.9819 53.0601 16.3433 53.0601 16.6645C53.0601 18.003 52.3802 18.6723 51.0205 18.6723C50.3406 18.6723 49.7784 18.4715 49.3339 18.0699C48.9155 17.6416 48.7063 17.0393 48.7063 16.263C48.7063 14.8709 49.4646 13.6529 50.9813 12.6088C52.4979 11.538 54.3937 11.0026 56.6686 11.0026C58.7344 11.0026 60.3556 11.4711 61.5323 12.408C62.7351 13.3182 63.3365 14.5095 63.3365 15.9819V26.3018C63.3365 28.0419 63.8595 28.9119 64.9054 28.9119C65.1931 28.9119 65.4546 28.8718 65.6899 28.7915C65.9514 28.6844 66.226 28.5237 66.5136 28.3096L67.2588 29.3938C66.3175 30.4111 65.2715 30.9197 64.121 30.9197C62.3167 30.9197 61.0224 29.7953 60.2379 27.5466C59.0874 28.7781 58.0937 29.6213 57.257 30.0764C56.2372 30.6386 54.9951 30.9197 53.5308 30.9197C51.7265 30.9197 50.3145 30.5181 49.2947 29.715C48.301 28.9119 47.8042 27.8411 47.8042 26.5026C47.8042 24.6019 48.8763 22.9957 51.0205 21.6839C53.1908 20.3454 56.211 19.4486 60.081 18.9935V16.1826C60.081 15.0851 59.6757 14.1883 58.8651 13.4922C58.0806 12.7962 57.087 12.4482 55.8841 12.4482C54.8643 12.4482 53.9622 12.6623 53.1778 13.0907C52.4194 13.4922 52.0403 13.8804 52.0403 14.2552C52.0403 14.3623 52.2626 14.804 52.7071 15.5803ZM60.081 20.3588C57.0478 20.7871 54.8382 21.443 53.4523 22.3264C52.0926 23.1831 51.4127 24.4413 51.4127 26.101C51.4127 27.1183 51.6742 27.9214 52.1972 28.5104C52.7463 29.0725 53.4785 29.3536 54.3937 29.3536C55.9103 29.3536 57.2308 28.7647 58.3552 27.5868C59.5057 26.3821 60.081 24.8696 60.081 23.0492V20.3588ZM68.6915 11.5246L74.8103 11.2034C74.9934 12.06 75.1241 12.823 75.2026 13.4922C75.3072 14.1347 75.3595 14.737 75.3595 15.2992C76.9807 12.5687 79.2164 11.2034 82.0666 11.2034C83.897 11.2034 85.3221 11.7923 86.3419 12.9702C87.3617 14.1481 87.8716 15.7677 87.8716 17.829V26.9845C87.8716 27.6537 88.0023 28.1356 88.2638 28.4301C88.5515 28.6978 89.0614 28.8316 89.7935 28.8316H91.1271V30.3575H81.3998V28.8316H82.3019C83.8447 28.8316 84.6161 28.2694 84.6161 27.1451V19.114C84.6161 15.3126 83.2433 13.4119 80.4977 13.4119C79.0595 13.4119 77.8436 14.0142 76.8499 15.2189C75.8563 16.4236 75.3595 18.0164 75.3595 19.9974V26.9845C75.3595 27.6805 75.5033 28.1623 75.7909 28.4301C76.0785 28.6978 76.6015 28.8316 77.3598 28.8316H78.615V30.3575H68.8876V28.8316H70.1428C71.4502 28.8316 72.1039 28.3631 72.1039 27.4262V15.2992C72.1039 13.6662 71.2933 12.8497 69.6721 12.8497H68.6915V11.5246ZM106.055 26.5427C104.512 29.3001 102.525 30.6788 100.093 30.6788C97.949 30.6788 96.1578 29.7686 94.7196 27.9482C93.2814 26.101 92.5623 23.7319 92.5623 20.8407C92.5623 17.9763 93.3337 15.6339 94.8765 13.8135C96.4193 11.9663 98.2758 11.0427 100.446 11.0427C102.826 11.0427 104.695 12.234 106.055 14.6166V4.01555C106.055 2.78411 105.166 2.16839 103.388 2.16839H102.133V0.682642L109.311 0.281088V26.0207C109.311 27.8946 110.043 28.8316 111.507 28.8316H112.801V30.3575H106.526L106.055 26.5427ZM96.3278 20.2785C96.3278 25.9806 97.8575 28.8316 100.917 28.8316C102.433 28.8316 103.662 28.082 104.604 26.5829C105.571 25.0838 106.055 22.9957 106.055 20.3187C106.055 18.0164 105.571 16.1559 104.604 14.737C103.636 13.3182 102.42 12.6088 100.956 12.6088C97.8705 12.6088 96.3278 15.1654 96.3278 20.2785ZM130.983 25.2176C129.074 29.019 126.315 30.9197 122.707 30.9197C120.223 30.9197 118.144 30.0229 116.47 28.2293C114.823 26.4089 113.999 24.0665 113.999 21.2021C113.999 18.177 114.81 15.7142 116.431 13.8135C118.052 11.9128 120.105 10.9624 122.589 10.9624C125.099 10.9624 127.1 11.8726 128.59 13.693C130.107 15.4866 130.865 17.9763 130.865 21.1619H117.686C117.686 22.206 117.752 23.1295 117.882 23.9326C118.013 24.7358 118.235 25.4318 118.549 26.0207C119.621 28.082 121.282 29.1127 123.53 29.1127C126.093 29.1127 128.146 27.6269 129.688 24.6554L130.983 25.2176ZM125.649 19.636C126.642 19.636 127.139 18.9668 127.139 17.6282C127.139 16.1291 126.694 14.8575 125.805 13.8135C124.942 12.7427 123.883 12.2073 122.628 12.2073C121.164 12.2073 119.974 12.8631 119.059 14.1749C118.144 15.4866 117.686 17.307 117.686 19.636H125.649ZM146.18 26.5427C144.637 29.3001 142.65 30.6788 140.218 30.6788C138.074 30.6788 136.283 29.7686 134.845 27.9482C133.407 26.101 132.687 23.7319 132.687 20.8407C132.687 17.9763 133.459 15.6339 135.002 13.8135C136.544 11.9663 138.401 11.0427 140.571 11.0427C142.951 11.0427 144.82 12.234 146.18 14.6166V4.01555C146.18 2.78411 145.291 2.16839 143.513 2.16839H142.258V0.682642L149.436 0.281088V26.0207C149.436 27.8946 150.168 28.8316 151.632 28.8316H152.927V30.3575H146.651L146.18 26.5427ZM136.453 20.2785C136.453 25.9806 137.983 28.8316 141.042 28.8316C142.559 28.8316 143.788 28.082 144.729 26.5829C145.696 25.0838 146.18 22.9957 146.18 20.3187C146.18 18.0164 145.696 16.1559 144.729 14.737C143.761 13.3182 142.545 12.6088 141.081 12.6088C137.996 12.6088 136.453 15.1654 136.453 20.2785Z" fill="#1EC5F6"/>
<path fill-rule="evenodd" clip-rule="evenodd" d="M34.1033 40C33.2361 40 32.488 40.3794 31.8601 41.1384C31.238 41.8904 30.9265 42.8357 30.9265 43.9741C30.9265 45.1401 31.238 46.1025 31.8601 46.8616C32.4822 47.6206 33.2458 48 34.1501 48C34.3025 48 34.4519 47.9893 34.5964 47.9678C34.9031 47.9226 35.1912 47.8296 35.4626 47.6885C35.572 47.6316 35.6785 47.5669 35.782 47.4944L35.8992 47.408L35.9978 47.3284C36.156 47.1958 36.3074 47.0437 36.4509 46.8718C37.0789 46.1199 37.3933 45.1643 37.3933 44.0051C37.3933 42.8391 37.0789 41.8801 36.4509 41.1282C35.822 40.376 35.0398 40 34.1033 40ZM34.1785 40.4036C35.53 40.4036 36.2058 41.6179 36.2058 44.0466C36.2058 45.2126 36.0261 46.0957 35.6687 46.696C35.3162 47.2961 34.8103 47.5964 34.1501 47.5964C32.7927 47.5964 32.114 46.3855 32.114 43.9639C32.114 43.4878 32.1423 43.053 32.199 42.6597C32.2556 42.2666 32.3406 41.9421 32.4539 41.687C32.6296 41.2729 32.865 40.9556 33.1609 40.7349C33.4626 40.5139 33.8015 40.4036 34.1785 40.4036ZM44.7205 44.0776H45.2859C45.3748 44.0776 45.4587 44.0818 45.5388 44.0901C45.5818 44.0945 45.6238 44.1001 45.6648 44.1069C45.7585 44.1228 45.8464 44.1448 45.9275 44.1729C46.0154 44.2031 46.0964 44.2407 46.1707 44.2856L46.2156 44.3145L46.2664 44.3508C46.3083 44.3828 46.3474 44.4175 46.3845 44.4551C46.4431 44.5151 46.4949 44.5825 46.5398 44.6572C46.6531 44.8477 46.7341 45.1101 46.7839 45.4446C46.822 45.7043 46.8416 46.0076 46.8416 46.3545C46.8416 46.8513 46.9421 47.2341 47.1433 47.5032C47.3503 47.7722 47.6238 47.9067 47.9636 47.9067C48.7556 47.9067 49.1511 47.3169 49.1511 46.1372H48.8308C48.8308 46.4683 48.7898 46.7305 48.7078 46.9236C48.6326 47.1169 48.5349 47.2134 48.4158 47.2134C48.196 47.2134 47.9382 46.5581 47.6433 45.2471C47.6306 45.1887 47.615 45.1323 47.5964 45.0781L47.574 45.0164L47.5554 44.9653C47.5251 44.8909 47.49 44.8206 47.4509 44.7544C47.4207 44.7041 47.3884 44.656 47.3533 44.6104L47.321 44.5693C47.2517 44.4868 47.1736 44.4126 47.0867 44.3467C46.8982 44.2019 46.5867 44.0637 46.1531 43.9326C46.6248 43.8774 46.9705 43.812 47.1902 43.7361C47.3728 43.6748 47.5369 43.592 47.6833 43.4875C47.7341 43.4517 47.783 43.4133 47.8289 43.3723C47.8601 43.345 47.8894 43.3164 47.9187 43.2869L47.9636 43.2393C48.2527 42.9219 48.3972 42.5286 48.3972 42.0596C48.3972 41.48 48.2019 41.0212 47.8123 40.6831C47.4226 40.345 46.8826 40.176 46.1912 40.176H42.5896V40.5691H43.2781C43.3611 40.5691 43.4304 40.5762 43.488 40.5903C43.5437 40.6042 43.5867 40.6248 43.6179 40.6521C43.6863 40.7073 43.7214 40.8071 43.7214 40.9521V47.0686C43.7214 47.3101 43.574 47.4309 43.2781 47.4309H42.5896V47.824H45.8328V47.4309H45.0876C44.8435 47.4309 44.7205 47.3101 44.7205 47.0686V44.0776ZM44.7205 40.9419C44.7205 40.7808 44.7849 40.6719 44.9138 40.6152C44.9509 40.5991 44.9929 40.5872 45.0408 40.5796C45.0847 40.5728 45.2488 40.5691 45.531 40.5691C46.1599 40.5691 46.5906 40.645 46.823 40.7969C47.1492 41.0107 47.3132 41.4524 47.3132 42.1216C47.3132 42.6736 47.1716 43.0737 46.8884 43.322C46.6121 43.5637 46.1658 43.6843 45.5505 43.6843H44.7205V40.9419ZM54.3005 40.176H57.5154V40.5691H56.9685C56.7166 40.5691 56.5593 40.6038 56.4968 40.6726C56.4402 40.7349 56.4119 40.8728 56.4119 41.0867V46.8823C56.4119 46.9531 56.4148 47.0151 56.4197 47.0684C56.4255 47.1394 56.4353 47.1946 56.45 47.2341C56.4998 47.3652 56.6511 47.4309 56.9021 47.4309H57.5154V47.824H54.3005V47.4309H54.9128C55.1267 47.4309 55.2654 47.3962 55.3279 47.3274C55.3542 47.2983 55.3748 47.2551 55.3904 47.198C55.4119 47.1194 55.4226 47.0142 55.4226 46.8823V41.0867C55.4226 40.8728 55.3943 40.7383 55.3376 40.6831C55.2625 40.6072 55.0984 40.5691 54.8474 40.5691H54.3005V40.176ZM68.5251 47.9897V45.0815C68.5251 44.8193 68.6912 44.6882 69.0242 44.6882H69.4207V44.3259H66.488V44.6882H67.0828C67.4216 44.6882 67.5916 44.8091 67.5916 45.0505V45.7542C67.5916 45.9126 67.5789 46.0627 67.5525 46.2048C67.5164 46.4038 67.4539 46.5867 67.3669 46.7532C67.2996 46.8816 67.2175 47.0005 67.1199 47.1099C66.8123 47.4548 66.4041 47.6274 65.8943 47.6274C64.531 47.6274 63.8494 46.427 63.8494 44.0259C63.8494 43.4739 63.8767 43.0012 63.9333 42.6079C63.9968 42.2078 64.0906 41.8733 64.2166 41.6042C64.5935 40.8037 65.1628 40.4036 65.9226 40.4036C66.0154 40.4036 66.1052 40.4104 66.1931 40.4241L66.24 40.4321C66.2908 40.4414 66.3406 40.4529 66.3884 40.4668C66.4675 40.4895 66.5447 40.5183 66.6199 40.5532L66.7078 40.5974L66.7654 40.6304C66.8044 40.6536 66.8425 40.6787 66.8806 40.7056C67.0164 40.8025 67.1433 40.9226 67.2615 41.0659C67.6257 41.5007 67.9304 42.1665 68.1755 43.0635H68.4685L68.2986 40H67.9783L67.5916 40.7659C67.2839 40.5037 67.0222 40.3208 66.8093 40.2173C66.5134 40.0725 66.1931 40 65.8474 40C65.0115 40 64.2791 40.3726 63.6511 41.1177C62.991 41.9043 62.6609 42.8735 62.6609 44.0259C62.6609 45.1851 62.9695 46.1372 63.5847 46.8823C64.2068 47.6206 64.99 47.9897 65.9324 47.9897C66.3533 47.9897 66.7175 47.8828 67.0261 47.6687C67.1755 47.5669 67.3171 47.4402 67.4509 47.2883C67.5984 47.1211 67.7361 46.9238 67.865 46.696L68.2234 47.9897H68.5251ZM74.5417 40.176H77.7566V40.5691H77.2097C76.9578 40.5691 76.8005 40.6038 76.738 40.6726C76.6814 40.7349 76.6531 40.8728 76.6531 41.0867V46.8823C76.6531 46.9607 76.656 47.0281 76.6619 47.0847C76.6677 47.1479 76.6775 47.1978 76.6912 47.2341C76.741 47.3652 76.8923 47.4309 77.1433 47.4309H77.7566V47.824H74.5417V47.4309H75.1541C75.2712 47.4309 75.366 47.4204 75.4373 47.3997C75.4968 47.3826 75.5408 47.3584 75.5691 47.3274C75.6316 47.2583 75.6628 47.1099 75.6628 46.8823V41.0867C75.6628 40.8728 75.6345 40.7383 75.5789 40.6831C75.5027 40.6072 75.3396 40.5691 75.0886 40.5691H74.5417V40.176ZM82.9207 40.5691H83.2419C83.3591 40.5691 83.4617 40.5869 83.5496 40.6221C83.5759 40.6328 83.6023 40.6453 83.6267 40.6592L83.657 40.6785L83.7039 40.7141L84.0046 41.0557V46.2407C84.0046 46.5925 83.9041 46.8789 83.7039 47.0996C83.6716 47.135 83.6384 47.1677 83.6033 47.1975C83.5847 47.2134 83.5652 47.2283 83.5447 47.2424L83.491 47.2788C83.4587 47.2991 83.4246 47.3174 83.3894 47.3337C83.321 47.3655 83.2488 47.3894 83.1726 47.4055C83.0935 47.4224 83.0095 47.4309 82.9207 47.4309V47.824H85.5798V47.4309C84.7937 47.4309 84.4011 47.0134 84.4011 46.1785V41.573L88.7566 47.824H89.199V41.7388C89.199 41.373 89.281 41.0867 89.4441 40.8796C89.6082 40.6726 89.8337 40.5691 90.1238 40.5691H90.2175V40.176H87.7664V40.5588C88.4519 40.5588 88.7937 40.9832 88.7937 41.8318V46.1785L84.5994 40.176H82.9207V40.5691ZM98.7996 40.0103H99.1101L101.618 47.0063C101.712 47.2893 101.917 47.4309 102.23 47.4309H102.447V47.824H99.6667V47.4309H99.8923C100.383 47.4309 100.628 47.3237 100.628 47.1099L100.626 47.0645C100.621 47.0176 100.609 46.9707 100.591 46.9236L100.015 45.2886H97.2527L96.9324 46.2302C96.9011 46.3203 96.8787 46.3921 96.863 46.4453C96.8494 46.49 96.8416 46.5217 96.8386 46.5408L96.8279 46.5876L96.825 46.606L96.8152 46.6594C96.8054 46.7234 96.8005 46.7874 96.8005 46.8513C96.8005 47.0029 96.8757 47.1375 97.0271 47.2549C97.1843 47.3721 97.3914 47.4309 97.6492 47.4309H97.8845V47.824H95.3582V47.4309H95.4333C95.8669 47.4309 96.197 47.1204 96.4236 46.4993L98.7996 40.0103ZM98.658 41.4902L97.4128 44.8953H99.8738L98.658 41.4902ZM107.616 40.5691H108.408C108.503 40.5691 108.576 40.5952 108.628 40.6477C108.688 40.7095 108.719 40.8076 108.719 40.9419V46.9236C108.719 46.9675 108.717 47.0083 108.713 47.0461C108.708 47.0911 108.7 47.1318 108.689 47.1682C108.677 47.2097 108.66 47.2456 108.639 47.2761C108.627 47.2954 108.612 47.3125 108.596 47.3274C108.514 47.3962 108.38 47.4309 108.191 47.4309H107.616V47.824H113.432L113.584 44.8745H113.254C113.109 45.7646 112.88 46.4131 112.565 46.8201C112.494 46.9128 112.416 46.9949 112.331 47.0667C112.257 47.1289 112.178 47.1831 112.094 47.2295C111.853 47.3638 111.57 47.4309 111.246 47.4309H110.274C109.897 47.4309 109.709 47.3237 109.709 47.1099V40.9314C109.709 40.8364 109.728 40.76 109.766 40.7024C109.825 40.6135 109.927 40.5691 110.076 40.5691H110.849V40.176H107.616V40.5691ZM119.241 44.947C119.367 45.7473 119.656 46.3889 120.108 46.8718C120.561 47.355 121.086 47.5964 121.682 47.5964C122.141 47.5964 122.518 47.448 122.814 47.1514C123.109 46.8479 123.258 46.4822 123.258 46.0544C123.258 45.7163 123.15 45.4333 122.936 45.2058C122.884 45.1482 122.826 45.0947 122.763 45.0454C122.57 44.8938 122.326 44.7817 122.032 44.709C121.246 44.5156 120.69 44.3535 120.363 44.2224C119.879 44.0293 119.54 43.8018 119.344 43.5396C119.282 43.4553 119.228 43.3625 119.183 43.261C119.141 43.1675 119.107 43.0664 119.08 42.958C119.03 42.7593 119.006 42.5356 119.006 42.2871C119.006 41.6318 119.2 41.0867 119.59 40.6521C119.979 40.2173 120.473 40 121.07 40C121.167 40 121.26 40.0054 121.351 40.0164C121.415 40.0239 121.476 40.0342 121.537 40.0471C121.682 40.0781 121.819 40.1245 121.947 40.1863C122.025 40.2231 122.103 40.2654 122.181 40.3132L122.246 40.3538L122.357 40.429C122.442 40.49 122.527 40.5576 122.613 40.6318C122.655 40.668 122.697 40.7058 122.739 40.7451L123.173 40.0725H123.511L123.54 42.8772H123.229C122.858 41.228 122.135 40.4036 121.06 40.4036C120.639 40.4036 120.294 40.5415 120.023 40.8176C119.926 40.9175 119.845 41.0254 119.784 41.1416C119.679 41.3381 119.628 41.5579 119.628 41.8008C119.628 41.9216 119.639 42.0344 119.663 42.1394C119.682 42.2295 119.711 42.3137 119.747 42.3923C119.807 42.521 119.89 42.6343 119.996 42.7322C120.184 42.9116 120.665 43.0979 121.437 43.291C122.218 43.4844 122.77 43.6912 123.096 43.9121C123.65 44.2847 123.927 44.8367 123.927 45.5679C123.927 46.2578 123.716 46.8306 123.295 47.2859C122.874 47.7412 122.324 47.969 121.645 47.969C121.352 47.969 121.074 47.9255 120.81 47.8389C120.663 47.7905 120.52 47.7285 120.382 47.6528C120.333 47.6265 120.285 47.5984 120.238 47.5686C120.14 47.5076 120.046 47.4395 119.953 47.3643C119.89 47.3137 119.83 47.26 119.769 47.2031L119.241 47.9172H118.902V44.947H119.241ZM26.9265 45V46H0.926514V45H26.9265ZM128.927 45V46H152.927V45H128.927Z" fill="#8E8E8E"/>
</g>
<defs>
<clipPath id="clip0_0_64">
<rect width="152" height="48" fill="white" transform="translate(0.926514)"/>
</clipPath>
</defs>
</svg>
