<svg width="121" height="46" viewBox="0 0 121 46" fill="none" xmlns="http://www.w3.org/2000/svg">
<g clip-path="url(#clip0_0_114)">
<path fill-rule="evenodd" clip-rule="evenodd" d="M16.4911 13.6954L28.5403 2.17205C29.775 1.05173 31.6955 0.297229 32.9988 0H25.3851C26.3683 0.297229 26.1168 1.14318 25.2708 2.17205L9.03758 17.6965V2.17205C9.33481 1.18891 10.2494 0.297229 11.2325 0H0.349365C1.30964 0.297229 2.24705 1.18891 2.52142 2.17205V32.6723C2.24705 33.6554 1.30964 34.5471 0.349365 34.8443H11.2325C10.2494 34.5471 9.33481 33.6554 9.03758 32.6723V20.8288L12.0785 17.9252L22.7101 32.6723C23.3503 33.7469 23.0988 34.5471 22.1156 34.8443H32.9988C32.0156 34.5471 30.1408 33.6097 29.3406 32.6723L29.3863 32.7408L16.4911 13.6954ZM44.0357 34.1584C44.1043 34.5471 44.4473 34.8443 44.8588 34.8443H52.7239C51.7408 34.5242 50.8262 33.6554 50.5519 32.6494V20.6917H50.5747C50.5747 15.273 46.0249 10.8831 39.9888 10.8831C36.1249 10.8831 32.3981 12.6208 31.232 16.9649L34.5244 19.7314C34.8216 15.3187 37.0623 11.9806 39.9888 11.9806C42.7782 11.9806 44.0128 15.9589 44.0128 20.6917V21.3547C42.8239 20.9203 41.4978 20.6917 40.1031 20.6917C35.0503 20.6917 30.9577 22.8637 30.9577 27.7566C30.9577 32.6494 35.0503 34.8443 40.1031 34.8443C41.5207 34.8443 42.8468 34.5928 44.0357 34.1584ZM42.4352 21.7891C42.984 21.7891 43.5098 21.8806 44.0128 22.1092V33.4268C43.5098 33.6325 42.984 33.7469 42.4352 33.7469C39.7145 33.7469 37.5195 32.0321 37.5195 27.7566C37.5195 23.6639 39.7145 21.7891 42.4352 21.7891ZM63.3622 34.8443C62.379 34.5471 61.4416 33.6554 61.1673 32.6723V0H61.1444L54.6511 1.87483L53.5536 2.17205C54.4225 2.92656 54.6511 5.44157 54.6511 6.53902V32.6723C54.3539 33.6554 53.4393 34.5471 52.4562 34.8443H63.3622ZM73.9865 34.8443C73.0034 34.5471 72.0888 33.6554 71.8145 32.6723V10.8831H71.7916L65.2754 12.758L64.178 13.0552C65.0468 13.8326 65.2754 16.3476 65.2754 17.4222V32.6723C65.0011 33.6554 64.0865 34.5471 63.1034 34.8443H73.9865ZM64.7267 5.44157C64.7267 7.2478 66.19 8.71108 67.9962 8.71108C69.8025 8.71108 71.2657 7.2478 71.2657 5.44157C71.2657 3.63533 69.8025 2.17205 67.9962 2.17205C66.19 2.17205 64.7267 3.63533 64.7267 5.44157ZM79.3299 33.1524C77.2493 33.1524 78.301 31.2547 80.5645 29.0827C82.0735 29.9972 83.8111 30.5002 85.6174 30.5002C86.4633 30.5002 87.3093 30.3859 88.1553 30.1572C93.3682 28.7626 96.4777 23.3896 95.083 18.1538C94.4199 15.7074 92.8652 13.7182 90.876 12.4379C92.0878 10.3573 93.6654 9.64849 95.3573 8.93971L93.2081 6.53902C91.4934 7.91085 90.3502 9.62562 89.7557 11.8205C88.4753 11.2261 87.0578 10.906 85.5945 10.906C84.7714 10.906 83.9255 10.9974 83.0795 11.2261C77.8437 12.6436 74.7571 18.0166 76.1518 23.2295C76.7234 25.333 77.9352 27.0935 79.5128 28.351C76.4262 31.0489 74.437 33.6554 75.8089 36.2619C76.4948 37.5422 77.798 38.0452 79.3527 38.0452C80.4502 38.0452 81.662 37.7937 82.8737 37.3593C85.2058 36.5134 87.6523 35.5074 89.3442 35.5074C90.4188 35.5074 91.1733 35.9189 91.379 37.0392C91.9506 41.1776 90.3959 43.624 87.9037 44.287C87.5837 44.3785 87.195 44.4242 86.7834 44.4242C83.4682 44.4242 77.455 41.9092 76.1747 38.2053L73.7054 41.7263C75.3744 44.6071 80.4045 45.7503 84.4513 45.7503C85.8917 45.7503 87.195 45.6131 88.1781 45.3388C93.1624 43.9898 97.5522 42.2522 97.5522 37.0392C97.5522 33.4725 93.9626 30.5231 89.5728 30.5231C88.2924 30.5231 86.9435 30.7746 85.6174 31.3233C82.4393 32.6265 80.4502 33.1524 79.3299 33.1524ZM83.9026 12.0263C86.1661 12.0263 88.7497 15.1815 89.9158 19.5485C91.1961 24.3041 90.3044 28.6711 87.9266 29.3113C87.7437 29.357 87.5379 29.3799 87.355 29.3799C85.0915 29.3799 82.4851 26.2018 81.319 21.8577C80.0386 17.1021 80.9303 12.7351 83.3082 12.0949C83.5139 12.0492 83.6968 12.0263 83.9026 12.0263ZM96.7994 25.9732C98.2398 31.3233 103.064 34.8443 108.346 34.8443C109.374 34.8443 110.426 34.7071 111.455 34.4328C117.857 32.718 121.652 26.1561 119.937 19.7543C118.497 14.4041 113.673 10.8831 108.368 10.8831C107.34 10.8831 106.311 11.0203 105.259 11.2947C98.88 13.0095 95.0846 19.5713 96.7994 25.9732ZM110.449 33.4725C107.705 33.4725 104.527 29.6085 103.11 24.2813C101.555 18.4739 102.652 13.1238 105.556 12.3464C105.785 12.2778 106.036 12.255 106.288 12.255C109.031 12.255 112.21 16.1189 113.627 21.4462C115.182 27.2536 114.084 32.6037 111.181 33.381C110.952 33.4496 110.701 33.4725 110.449 33.4725Z" fill="#13B155"/>
</g>
<defs>
<clipPath id="clip0_0_114">
<rect width="120" height="45.7503" fill="white" transform="translate(0.349365)"/>
</clipPath>
</defs>
</svg>
