<svg width="109" height="49" viewBox="0 0 109 49" fill="none" xmlns="http://www.w3.org/2000/svg">
<g clip-path="url(#clip0_0_92)">
<path fill-rule="evenodd" clip-rule="evenodd" d="M7.15933 2.20872L11.8491 15.2492H11.9398L16.6296 2.20872H22.8624V23.3882H18.7475V8.19948H18.5962L13.2711 23.3882H10.548L5.19266 8.19948H5.04138V23.3882H0.926514V2.20872H7.15933ZM27.051 22.4805C25.9013 21.6938 25.044 20.6752 24.4792 19.4246C23.9346 18.1538 23.6623 16.7923 23.6623 15.34C23.6623 13.8877 23.9346 12.5362 24.4792 11.2856C25.044 10.0149 25.9013 8.98614 27.051 8.19948C28.2008 7.41281 29.6228 7.01948 31.3172 7.01948C33.5562 7.01948 35.3312 7.73555 36.6423 9.16768C37.9736 10.5998 38.6392 12.6673 38.6392 15.3702V16.52H27.6864V16.762C27.6864 17.7302 28.0192 18.5673 28.6849 19.2733C29.3505 19.9591 30.1876 20.302 31.1962 20.302C31.9828 20.302 32.6485 20.1205 33.1931 19.7574C33.7377 19.3943 34.131 18.9001 34.3731 18.2749H38.4879C38.0644 19.8482 37.2373 21.1391 36.0069 22.1477C34.7765 23.136 33.2032 23.6302 31.2869 23.6302C29.6127 23.6302 28.2008 23.247 27.051 22.4805ZM33.6469 10.9831C33.0418 10.3779 32.245 10.0754 31.2567 10.0754C30.2078 10.0754 29.3808 10.4082 28.7756 11.0738C28.1705 11.7395 27.8478 12.6472 27.8074 13.7969H34.6151C34.5748 12.5261 34.2521 11.5882 33.6469 10.9831ZM43.654 7.41281V9.86358H43.8658C44.2289 9.07691 44.8138 8.41127 45.6207 7.86666C46.4275 7.30187 47.4058 7.01948 48.5555 7.01948C50.6332 7.01948 52.0955 7.68512 52.9427 9.0164C53.8101 10.3477 54.2437 11.8605 54.2437 13.5549V23.3882H50.0684V14.2508C50.0684 13.0808 49.786 12.1631 49.2212 11.4974C48.6766 10.8318 47.9 10.499 46.8914 10.499C45.8224 10.499 45.0156 10.852 44.4709 11.5579C43.9263 12.2437 43.654 13.1414 43.654 14.2508V23.3882H39.4181V7.41281H43.654ZM65.7459 23.3882V20.8466H65.5341C65.1711 21.6333 64.5962 22.309 63.8095 22.8738C63.043 23.4184 62.095 23.6907 60.9654 23.6907C58.9282 23.6907 57.496 23.0251 56.669 21.6938C55.842 20.3424 55.4285 18.8296 55.4285 17.1554V7.41281H59.6039V16.4595C59.6039 17.6092 59.8661 18.527 60.3905 19.2128C60.915 19.8784 61.6613 20.2113 62.6295 20.2113C63.6784 20.2113 64.455 19.8583 64.9593 19.1523C65.4837 18.4463 65.7459 17.5487 65.7459 16.4595V7.41281H69.9516V23.3882H65.7459ZM75.8029 7.41281V23.3882H71.6275V7.41281H75.8029ZM72.0209 3.99384C71.5771 3.52991 71.3552 2.97521 71.3552 2.32974C71.3552 1.6641 71.5771 1.1094 72.0209 0.665641C72.4646 0.221881 73.0193 0 73.6849 0C74.3506 0 74.9053 0.231967 75.3491 0.695898C75.7928 1.13966 76.0147 1.68427 76.0147 2.32974C76.0147 2.97521 75.7928 3.52991 75.3491 3.99384C74.9053 4.4376 74.3506 4.65948 73.6849 4.65948C73.0193 4.65948 72.4646 4.4376 72.0209 3.99384ZM82.0232 7.41281V9.86358H82.235C82.5981 9.07691 83.183 8.41127 83.9899 7.86666C84.7967 7.30187 85.775 7.01948 86.9247 7.01948C89.0023 7.01948 90.4647 7.68512 91.3119 9.0164C92.1793 10.3477 92.6129 11.8605 92.6129 13.5549V23.3882H88.4376V14.2508C88.4376 13.0808 88.1552 12.1631 87.5904 11.4974C87.0458 10.8318 86.2692 10.499 85.2606 10.499C84.1916 10.499 83.3848 10.852 82.8401 11.5579C82.2955 12.2437 82.0232 13.1414 82.0232 14.2508V23.3882H77.7873V7.41281H82.0232ZM96.7614 22.4805C95.6117 21.6938 94.7544 20.6752 94.1896 19.4246C93.645 18.1538 93.3727 16.7923 93.3727 15.34C93.3727 13.8877 93.645 12.5362 94.1896 11.2856C94.7544 10.0149 95.6117 8.98614 96.7614 8.19948C97.9111 7.41281 99.3332 7.01948 101.028 7.01948C103.267 7.01948 105.042 7.73555 106.353 9.16768C107.684 10.5998 108.35 12.6673 108.35 15.3702V16.52H97.3968V16.762C97.3968 17.7302 97.7296 18.5673 98.3953 19.2733C99.0609 19.9591 99.898 20.302 100.907 20.302C101.693 20.302 102.359 20.1205 102.903 19.7574C103.448 19.3943 103.841 18.9001 104.083 18.2749H108.198C107.775 19.8482 106.948 21.1391 105.717 22.1477C104.487 23.136 102.914 23.6302 100.997 23.6302C99.3231 23.6302 97.9111 23.247 96.7614 22.4805ZM103.357 10.9831C102.752 10.3779 101.955 10.0754 100.967 10.0754C99.9182 10.0754 99.0912 10.4082 98.486 11.0738C97.8809 11.7395 97.5582 12.6472 97.5178 13.7969H104.326C104.285 12.5261 103.962 11.5882 103.357 10.9831Z" fill="#ECB22E"/>
<path fill-rule="evenodd" clip-rule="evenodd" d="M19.9569 39.3216L18.558 43.536H15.0608L21.3558 26.3845H24.6032L30.8732 43.536H27.376L25.9521 39.3216H19.9569ZM23.0045 30.5989H22.8546L20.8312 36.6999H25.0778L23.0045 30.5989ZM35.3182 48.8529C35.0017 48.7876 34.6853 48.6977 34.3689 48.5834V45.8636C34.5354 45.9126 34.8019 45.9617 35.1683 46.0107C35.5513 46.076 35.9177 46.1087 36.2674 46.1087C37.4331 46.1087 38.2492 45.782 38.7155 45.1286C39.1984 44.4915 39.4399 43.6911 39.4399 42.7274V41.0122H39.24C38.9736 41.6003 38.5073 42.1475 37.8412 42.6539C37.175 43.1603 36.2924 43.4134 35.1933 43.4134C34.1274 43.4134 33.2032 43.1439 32.4205 42.6049C31.6378 42.0495 31.0382 41.2818 30.6219 40.3017C30.2056 39.3053 29.9974 38.1618 29.9974 36.8714C29.9974 35.5483 30.2056 34.3967 30.6219 33.4166C31.0382 32.4202 31.6378 31.6525 32.4205 31.1134C33.2198 30.558 34.1524 30.2803 35.2182 30.2803C36.334 30.2803 37.225 30.5499 37.8911 31.0889C38.5573 31.6116 39.0069 32.167 39.24 32.7551H39.4399V30.5989H42.9121V42.7274C42.9121 43.5605 42.7539 44.4425 42.4375 45.3736C42.1377 46.321 41.5299 47.1541 40.614 47.8728C39.698 48.6079 38.399 48.9754 36.7171 48.9754C36.1009 48.9754 35.6346 48.9346 35.3182 48.8529ZM38.6905 39.5176C39.1901 38.7499 39.4399 37.8515 39.4399 36.8224C39.4399 35.8096 39.1901 34.9276 38.6905 34.1762C38.2075 33.4084 37.4748 33.0246 36.4922 33.0246C35.5097 33.0246 34.7686 33.4084 34.269 34.1762C33.7694 34.9276 33.5196 35.8096 33.5196 36.8224C33.5196 37.8515 33.7611 38.7499 34.244 39.5176C34.7436 40.2853 35.493 40.6692 36.4922 40.6692C37.4581 40.6692 38.1909 40.2853 38.6905 39.5176ZM46.6966 42.8009C45.7474 42.1638 45.0396 41.3389 44.5733 40.3262C44.1237 39.2971 43.8989 38.1945 43.8989 37.0184C43.8989 35.8423 44.1237 34.7479 44.5733 33.7351C45.0396 32.706 45.7474 31.873 46.6966 31.2359C47.6459 30.5989 48.82 30.2803 50.2188 30.2803C52.0674 30.2803 53.5329 30.8602 54.6154 32.02C55.7145 33.1798 56.264 34.8541 56.264 37.0429V37.974H47.2212V38.17C47.2212 38.9541 47.496 39.632 48.0456 40.2037C48.5951 40.7591 49.2863 41.0367 50.1189 41.0367C50.7684 41.0367 51.318 40.8897 51.7676 40.5957C52.2173 40.3017 52.542 39.9015 52.7418 39.3951H56.1391C55.7894 40.6692 55.1066 41.7146 54.0908 42.5314C53.0749 43.3318 51.7759 43.732 50.1939 43.732C48.8116 43.732 47.6459 43.4216 46.6966 42.8009ZM52.1423 33.4901C51.6427 33.0001 50.9849 32.7551 50.1689 32.7551C49.3029 32.7551 48.6201 33.0246 48.1205 33.5636C47.6209 34.1027 47.3545 34.8377 47.3212 35.7688H52.9417C52.9084 34.7397 52.6419 33.9802 52.1423 33.4901ZM60.4043 30.5989V32.5835H60.5792C60.879 31.9465 61.3619 31.4074 62.028 30.9664C62.6942 30.509 63.5019 30.2803 64.4511 30.2803C66.1664 30.2803 67.3738 30.8194 68.0732 31.8975C68.7893 32.9756 69.1474 34.2007 69.1474 35.5728V43.536H65.7001V36.1363C65.7001 35.1889 65.467 34.4457 65.0007 33.9066C64.551 33.3676 63.9099 33.0981 63.0772 33.0981C62.1946 33.0981 61.5284 33.3839 61.0788 33.9557C60.6292 34.511 60.4043 35.2379 60.4043 36.1363V43.536H56.9071V30.5989H60.4043ZM72.5724 42.8009C71.6232 42.1638 70.9154 41.3308 70.4491 40.3017C69.9995 39.2726 69.7747 38.17 69.7747 36.9939C69.7747 35.8341 69.9995 34.7479 70.4491 33.7351C70.9154 32.706 71.6232 31.873 72.5724 31.2359C73.5217 30.5989 74.6957 30.2803 76.0946 30.2803C77.8599 30.2803 79.2505 30.7786 80.2663 31.775C81.2988 32.7551 81.9233 33.9965 82.1398 35.4993H78.7675C78.6509 34.7642 78.3678 34.1762 77.9182 33.7351C77.4852 33.2778 76.8857 33.0491 76.1196 33.0491C75.1038 33.0491 74.3543 33.4329 73.8714 34.2007C73.4051 34.9684 73.172 35.8995 73.172 36.9939C73.172 38.121 73.4051 39.0684 73.8714 39.8361C74.3543 40.6039 75.1038 40.9877 76.1196 40.9877C76.869 40.9877 77.4685 40.7672 77.9182 40.3262C78.3678 39.8688 78.6509 39.2726 78.7675 38.5375H82.1398C81.9233 40.0403 81.2988 41.2899 80.2663 42.2863C79.2505 43.2664 77.8599 43.7565 76.0946 43.7565C74.6957 43.7565 73.5217 43.4379 72.5724 42.8009ZM87.6449 46.9662C87.3784 47.4399 86.9038 47.8973 86.221 48.3384C85.5548 48.7794 84.6722 48.9999 83.5731 48.9999C83.1068 48.9999 82.7071 48.9591 82.374 48.8774C82.041 48.8121 81.8328 48.7712 81.7495 48.7549V46.3782C82.016 46.4435 82.374 46.4762 82.8237 46.4762C83.3732 46.4762 83.8146 46.3864 84.1476 46.2067C84.4807 46.027 84.7472 45.7901 84.947 45.4961C85.1468 45.2021 85.3467 44.7937 85.5465 44.271L85.9712 43.2419L81.225 30.5989H84.7222L87.5699 39.4931H87.7198L90.7174 30.5989H94.2146L88.3943 45.3736C88.1611 45.978 87.9113 46.5089 87.6449 46.9662Z" fill="#2EB67D"/>
</g>
<defs>
<clipPath id="clip0_0_92">
<rect width="107.423" height="48.9999" fill="white" transform="translate(0.926514)"/>
</clipPath>
</defs>
</svg>
