<svg width="112" height="47" viewBox="0 0 112 47" fill="none" xmlns="http://www.w3.org/2000/svg">
<g clip-path="url(#clip0_0_157)">
<path fill-rule="evenodd" clip-rule="evenodd" d="M25.5764 10.9941C25.5764 17.7229 29.592 22.0647 35.8196 22.0647C41.9963 22.0647 46.0891 17.6213 46.0891 10.918C46.0891 4.26562 42.0989 0 35.845 0C29.592 0 25.5764 4.29102 25.5764 10.9941ZM30.8381 10.9688C30.8381 6.88086 32.7444 4.36719 35.845 4.36719C38.9211 4.36719 40.802 6.85547 40.802 10.9688C40.802 15.1328 38.9211 17.6721 35.845 17.6721C32.7444 17.6721 30.8381 15.1074 30.8381 10.9688ZM14.842 17.8499L17.3069 10.8926C17.6194 10.0288 17.8635 9.16504 18.3606 7.40112L18.4514 7.08398L18.4377 7.29883C18.4241 7.49609 18.4133 7.69336 18.3733 8.396L18.3499 8.81055C18.2981 9.59766 18.2219 11.502 18.2219 12.1113V17.6467C18.2219 19.4495 18.1711 20.4143 18.0188 21.5823H23.0266C22.9563 21.1104 22.9075 20.644 22.8752 20.0864C22.8596 19.8157 22.8479 19.5232 22.8401 19.1982C22.8284 18.7522 22.8235 18.2446 22.8235 17.6467V4.41797C22.8235 3.67773 22.8333 3.06274 22.8567 2.50342C22.887 1.77734 22.9407 1.14551 23.0266 0.457031H16.2903C16.1379 1.52344 15.9348 2.33594 15.3499 4.03711L11.5627 14.9805L7.75024 4.03711C7.16528 2.36133 6.96216 1.54883 6.78442 0.457031H0.0734863C0.200439 1.54883 0.276611 2.89453 0.276611 4.41797V17.6467C0.276611 19.3733 0.22583 20.4397 0.0734863 21.5823H5.0813C4.92798 20.5159 4.8772 19.3987 4.8772 17.6467V12.1367C4.8772 10.791 4.77563 8.70898 4.62329 7.10938L4.70923 7.35474C4.77271 7.53809 4.82935 7.72363 5.03052 8.37891C5.10669 8.58203 5.86938 10.9434 5.89478 11.0703L8.23267 17.8245C8.91919 19.7542 9.19849 20.6936 9.32544 21.5823H13.7483C13.8752 20.7698 14.2063 19.6526 14.842 17.8499ZM62.7483 2.25024C62.717 1.59863 62.6643 1.08081 62.5813 0.457031H68.0715C67.9192 1.54883 67.8684 2.46289 67.8684 4.29102V13.0254C67.8684 18.8147 64.386 22.0901 58.26 22.0901C55.1086 22.0901 52.5413 21.2014 51.0159 19.6018C49.5422 18.0276 48.7795 15.8184 48.7795 12.9746V4.29102C48.7795 3.50049 48.7698 2.83936 48.7444 2.26294C48.7131 1.56201 48.6604 0.986572 48.5764 0.457031H54.0667C53.9143 1.39648 53.8625 2.41211 53.8625 4.29102V13.0254C53.8625 16.2246 55.3118 17.7483 58.2854 17.7483C61.3362 17.7483 62.7844 16.2246 62.7844 13.0254V4.29102C62.7844 3.42651 62.7737 2.79224 62.7483 2.25024ZM76.6819 0.457031H71.1663C71.3186 1.625 71.3694 2.76758 71.3694 4.24023V17.5959C71.3694 18.4104 71.3596 19.0818 71.3362 19.6619C71.3059 20.4197 71.2522 21.0212 71.1663 21.5823H76.5803C76.427 20.4905 76.3762 19.3733 76.3762 17.6213V11.9336C76.3762 10.6895 76.3254 9.29297 76.1985 8.15039C76.426 8.58057 76.6252 8.95093 76.8127 9.28906C76.9045 9.45386 76.9934 9.61084 77.0823 9.76343C77.1545 9.88843 77.2258 10.0105 77.2981 10.1311C77.3948 10.2927 77.4934 10.4521 77.5959 10.6133L77.8 10.9304L78.0286 11.2734L82.7317 18.3577C83.5959 19.678 84.1799 20.6174 84.6379 21.5823H90.2043C90.0774 20.5159 90.0012 19.3479 90.0012 17.7991V4.31641C90.0012 2.66602 90.052 1.59961 90.2043 0.457031H84.7903C84.9426 1.625 84.9934 2.64062 84.9934 4.31641V10.1055C84.9934 11.5273 85.0442 12.6953 85.1458 13.8633C84.5364 12.7461 84.053 11.9336 83.3157 10.8418L78.4866 3.63086C77.4954 2.1582 76.9358 1.14258 76.6819 0.457031ZM104.236 4.95117V17.7483C104.236 19.2717 104.286 20.3889 104.44 21.5823H98.8215C98.9739 20.3889 99.0247 19.3479 99.0247 17.7483V4.95117H96.0256C94.4241 4.95117 93.9924 4.97656 92.1877 5.12891V0.279297C93.0266 0.380859 94.4241 0.457031 95.9749 0.457031H107.109C108.888 0.457031 109.905 0.40625 111.073 0.279297V5.12891C109.93 5.00195 108.939 4.95117 107.109 4.95117H104.236ZM18.72 46.7073C18.176 45.5581 17.8958 44.9658 17.6379 44.3086C17.0217 42.833 16.634 41.9014 16.3489 41.2292C16.1038 40.6521 15.9329 40.2659 15.7571 39.8906C14.9436 38.0879 14.3586 37.5039 13.0627 37.0977C14.3079 36.6914 14.842 36.4121 15.4768 35.8281C16.468 34.8887 16.9768 33.4668 16.9768 31.6641C16.9768 28.0076 14.5872 25.8748 10.47 25.8748H3.8606C2.13208 25.8748 1.19165 25.8494 0.0734863 25.7986C0.22583 27.0173 0.276611 27.9568 0.276611 29.531V43.1914C0.276611 45.0703 0.22583 45.832 0.0734863 47H5.53833C5.38599 45.832 5.33521 44.8926 5.33521 43.166V39.002H7.92798C8.15649 39.002 8.37036 39.0181 8.57251 39.0518C9.09009 39.1382 9.52661 39.3406 9.9104 39.6875C10.5461 40.2461 10.8508 40.8301 11.6643 43.0391C12.4524 45.1465 12.7571 46.1875 12.9094 47H18.8577L18.72 46.7073ZM5.33521 30.1406H9.32544C10.9016 30.1406 11.7151 30.877 11.7151 32.2988C11.7151 33.7461 10.8 34.6602 9.30005 34.6602H5.33521V30.1406ZM41.3342 47H35.387C35.1829 45.7812 35.0305 45.1211 34.7766 44.2578L34.0901 42.0996H26.8459L26.1594 44.2578C25.9348 44.949 25.7805 45.5342 25.6653 46.1338C25.6106 46.4153 25.5647 46.7 25.5237 47H19.5764C19.9573 46.2383 20.1858 45.6289 20.7961 43.9023L26.2864 28.6169C26.7444 27.3728 26.9729 26.6111 27.0999 25.8748H33.7346C33.8499 26.3516 33.9651 26.7964 34.1702 27.4163C34.2815 27.7537 34.4192 28.1428 34.5989 28.6169L40.1145 43.9023C40.3918 44.6755 40.6448 45.3481 40.8713 45.9155C41.0393 46.3354 41.1936 46.6975 41.3342 47ZM32.845 37.834L30.4299 30.2168L28.0657 37.834H32.845ZM43.2942 29.6326V43.2422C43.2942 44.1201 43.2805 44.8291 43.2463 45.4456L43.2278 45.7336C43.2161 45.9097 43.2014 46.0786 43.1858 46.2424C43.1711 46.3848 43.1555 46.5232 43.1379 46.6594L43.0911 47H48.6838C48.5305 45.9336 48.4797 44.9941 48.4797 43.2422V29.6326C48.4797 28.5291 48.4973 27.7766 48.5442 27.1284C48.5764 26.688 48.6213 26.2959 48.6838 25.8748H43.0911C43.2434 26.9919 43.2942 27.7283 43.2942 29.6326ZM59.1497 29.0486L63.9788 36.2598C64.1565 36.5229 64.3196 36.77 64.4729 37.0088C64.6223 37.2407 64.7629 37.4651 64.8987 37.6895C65.2034 38.1924 65.4885 38.6948 65.8088 39.2812C65.7073 38.1133 65.6565 36.9453 65.6565 35.5234V29.7341C65.6565 28.0583 65.6057 27.0427 65.4534 25.8748H70.8674C70.7151 27.0173 70.6643 28.0837 70.6643 29.7341V43.2168C70.6643 44.7656 70.7405 45.9336 70.8674 47H65.301C64.843 46.0352 64.259 45.0957 63.3948 43.7754L58.6917 36.6914L58.4573 36.3384C58.3733 36.2107 58.2922 36.0857 58.2141 35.9614C57.9875 35.6013 57.7786 35.2478 57.5579 34.8535C57.4602 34.679 57.3596 34.4966 57.2542 34.302C57.1311 34.0759 57.0022 33.8335 56.8616 33.5684C56.9885 34.7109 57.0393 36.1074 57.0393 37.3516V43.0391C57.0393 44.1143 57.0588 44.9504 57.1086 45.6885C57.1252 45.9329 57.1458 46.1665 57.1692 46.3945C57.1907 46.5996 57.2151 46.8003 57.2434 47H51.8293C51.8713 46.7246 51.9055 46.4395 51.9338 46.1309C51.9827 45.5854 52.011 44.9666 52.0237 44.199L52.0315 43.5354L52.0325 43.0137V29.6582C52.0325 28.1853 51.9817 27.0427 51.8293 25.8748H57.345C57.4856 26.2544 57.72 26.7351 58.0696 27.3386C58.3508 27.825 58.7073 28.3914 59.1497 29.0486ZM101.169 26L88.595 38.1931L85.4875 35.0857L84.134 33.7317L82.7219 35.0256L73.0735 43.8701V27C73.0735 26.4478 73.5208 26 74.0735 26H101.169ZM75.5784 47L84.0129 39.2683L87.1594 42.4143L88.552 43.8069L89.9661 42.4358L104.665 28.1816L111.073 38.7361V46C111.073 46.5522 110.626 47 110.073 47H75.5784ZM111.073 31.0286L108.021 26H110.073C110.626 26 111.073 26.4478 111.073 27V31.0286Z" fill="#4954C2"/>
</g>
<defs>
<clipPath id="clip0_0_157">
<rect width="111" height="47" fill="white" transform="translate(0.0734863)"/>
</clipPath>
</defs>
</svg>
